name analog
datacolumns 19
datarows 28
range 0.302 0.3155
endheader
time	ground_force_vx	ground_force_vy	ground_force_vz	ground_force_px	ground_force_py	ground_force_pz	l_ground_force_vx	l_ground_force_vy	l_ground_force_vz	l_ground_force_px	l_ground_force_py	l_ground_force_pz	ground_torque_x	ground_torque_y	ground_torque_z	l_ground_torque_x	l_ground_torque_y	l_ground_torque_z
0.302	-0.0	-0.0	-0.0	6.791501522064209	3.050566911697388	-865.1882934570312	-0.0	-0.0	-0.0	-0.0	-0.0	-0.0	-0.0	-0.0	-0.0	-0.0	-0.0	-0.0
0.3025	-0.0	-0.0	-0.0	6.002963542938232	1.6502078771591189	-867.7630615234375	-0.0	-0.0	-0.0	-0.0	-0.0	-0.0	-0.0	-0.0	-0.0	-0.0	-0.0	-0.0
0.303	-0.0	-0.0	-0.0	4.849081993103027	-0.1664054691791534	-870.816162109375	-0.0	-0.0	-0.0	-0.0	-0.0	-0.0	-0.0	-0.0	-0.0	-0.0	-0.0	-0.0
0.3035	-0.0	-0.0	-0.0	3.217627763748169	-2.318894863128662	-872.4561767578125	-0.0	-0.0	-0.0	-0.0	-0.0	-0.0	-0.0	-0.0	-0.0	-0.0	-0.0	-0.0
0.304	-0.0	-0.0	-0.0	1.178079605102539	-4.23429536819458	-874.8508911132812	-0.0	-0.0	-0.0	-0.0	-0.0	-0.0	-0.0	-0.0	-0.0	-0.0	-0.0	-0.0
0.3045	-0.0	-0.0	-0.0	-0.356842041015625	-5.264918804168701	-875.3577880859375	-0.0	-0.0	-0.0	-0.0	-0.0	-0.0	-0.0	-0.0	-0.0	-0.0	-0.0	-0.0
0.305	-0.0	-0.0	-0.0	-3.7788100242614746	-6.149997711181641	-873.565185546875	-0.0	-0.0	-0.0	-0.0	-0.0	-0.0	-0.0	-0.0	-0.0	-0.0	-0.0	-0.0
0.3055	-0.0	-0.0	-0.0	-6.231945037841797	-5.545145988464356	-871.3202514648438	-0.0	-0.0	-0.0	-0.0	-0.0	-0.0	-0.0	-0.0	-0.0	-0.0	-0.0	-0.0
0.306	-0.0	-0.0	-0.0	-7.735918521881103	-5.576830863952637	-869.7559204101562	-0.0	-0.0	-0.0	-0.0	-0.0	-0.0	-0.0	-0.0	-0.0	-0.0	-0.0	-0.0
0.3065	-0.0	-0.0	-0.0	-9.506950378417969	-5.5700531005859375	-867.5101318359375	-0.0	-0.0	-0.0	-0.0	-0.0	-0.0	-0.0	-0.0	-0.0	-0.0	-0.0	-0.0
0.307	-0.0	-0.0	-0.0	-10.106061935424805	-6.493143558502197	-867.3098754882812	-0.0	-0.0	-0.0	-0.0	-0.0	-0.0	-0.0	-0.0	-0.0	-0.0	-0.0	-0.0
0.3075	-0.0	-0.0	-0.0	-10.387236595153809	-7.12362813949585	-865.7437744140625	-0.0	-0.0	-0.0	-0.0	-0.0	-0.0	-0.0	-0.0	-0.0	-0.0	-0.0	-0.0
0.308	-0.0	-0.0	-0.0	-9.648589134216309	-8.154138565063477	-862.74658203125	-0.0	-0.0	-0.0	-0.0	-0.0	-0.0	-0.0	-0.0	-0.0	-0.0	-0.0	-0.0
0.3085	-0.0	-0.0	-0.0	-8.724576950073242	-9.351688385009766	-861.632080078125	-0.0	-0.0	-0.0	-0.0	-0.0	-0.0	-0.0	-0.0	-0.0	-0.0	-0.0	-0.0
0.309	-0.0	-0.0	-0.0	-7.443686485290527	-10.645696640014648	-862.4935302734375	-0.0	-0.0	-0.0	-0.0	-0.0	-0.0	-0.0	-0.0	-0.0	-0.0	-0.0	-0.0
0.3095	-0.0	-0.0	-0.0	-5.934488296508789	-11.312342643737791	-864.5272827148438	-0.0	-0.0	-0.0	-0.0	-0.0	-0.0	-0.0	-0.0	-0.0	-0.0	-0.0	-0.0
0.31	-0.0	-0.0	-0.0	-4.839391231536865	-11.41602611541748	-865.0360717773438	-0.0	-0.0	-0.0	-0.0	-0.0	-0.0	-0.0	-0.0	-0.0	-0.0	-0.0	-0.0
0.3105	-0.0	-0.0	-0.0	-4.809960842132568	-10.995216369628906	-862.720458984375	-0.0	-0.0	-0.0	-0.0	-0.0	-0.0	-0.0	-0.0	-0.0	-0.0	-0.0	-0.0
0.311	-0.0	-0.0	-0.0	-5.084999084472656	-10.843843460083008	-859.4442138671875	-0.0	-0.0	-0.0	-0.0	-0.0	-0.0	-0.0	-0.0	-0.0	-0.0	-0.0	-0.0
0.3115	-0.0	-0.0	-0.0	-5.548055648803711	-10.460511207580566	-859.44482421875	-0.0	-0.0	-0.0	-0.0	-0.0	-0.0	-0.0	-0.0	-0.0	-0.0	-0.0	-0.0
0.312	-0.0	-0.0	-0.0	-5.360335350036621	-11.82976531982422	-859.5120849609375	-0.0	-0.0	-0.0	-0.0	-0.0	-0.0	-0.0	-0.0	-0.0	-0.0	-0.0	-0.0
0.3125	-0.0	-0.0	-0.0	-5.847728252410889	-12.46938419342041	-859.6400146484375	-0.0	-0.0	-0.0	-0.0	-0.0	-0.0	-0.0	-0.0	-0.0	-0.0	-0.0	-0.0
0.313	-0.0	-0.0	-0.0	-6.472046852111816	-11.757282257080078	-859.6400146484375	-0.0	-0.0	-0.0	-0.0	-0.0	-0.0	-0.0	-0.0	-0.0	-0.0	-0.0	-0.0
0.3135	-0.0	-0.0	-0.0	-8.142558097839355	-10.168861389160156	-857.4242553710938	-0.0	-0.0	-0.0	-0.0	-0.0	-0.0	-0.0	-0.0	-0.0	-0.0	-0.0	-0.0
0.314	-0.0	-0.0	-0.0	-10.478157043457031	-7.802984237670898	-853.7001953125	-0.0	-0.0	-0.0	-0.0	-0.0	-0.0	-0.0	-0.0	-0.0	-0.0	-0.0	-0.0
0.3145	-0.0	-0.0	-0.0	-12.432280540466309	-5.566766738891602	-850.9390258789062	-0.0	-0.0	-0.0	-0.0	-0.0	-0.0	-0.0	-0.0	-0.0	-0.0	-0.0	-0.0
0.315	-0.0	-0.0	-0.0	-12.878811836242676	-4.529734134674072	-849.9754638671875	-0.0	-0.0	-0.0	-0.0	-0.0	-0.0	-0.0	-0.0	-0.0	-0.0	-0.0	-0.0
0.3155	-0.0	-0.0	-0.0	-12.302650451660156	-3.655409812927246	-847.8894653320312	-0.0	-0.0	-0.0	-0.0	-0.0	-0.0	-0.0	-0.0	-0.0	-0.0	-0.0	-0.0
